<?xml version="1.0" encoding="iso-8859-1"?>
<!DOCTYPE svg PUBLIC "-//W3C//DTD SVG 1.1//EN" "http://www.w3.org/Graphics/SVG/1.1/DTD/svg11.dtd">
<svg version="1.1" xmlns="http://www.w3.org/2000/svg" xmlns:xlink="http://www.w3.org/1999/xlink"
	x="0px" y="0px"
	width="124px" height="93px"
	viewBox="0 0 55.78 40.92" style="enable-background:new 0 0 55.78 40.92;" xml:space="preserve">
	<defs>
		<style>.cls-1{fill:#4bc4ea;}.cls-2{fill:#333;}</style>
	</defs>
	<title>Fichier 1</title>
	<circle class="cls-1" cx="45.56" cy="4.18" r="4.18"/>
	<path class="cls-2" d="M1.59,35.73H.67L1,34.82a2.36,2.36,0,0,0,.12-.38h0a1.8,1.8,0,0,0,.12.38Zm.7.89-1-2.6H.94L0,36.62H.36L.58,36H1.68l.22.6Z"/>
	<path class="cls-2" d="M3.77,36.67a1.76,1.76,0,0,1-.53-.07l0-.34a1.88,1.88,0,0,0,.53.1c.31,0,.58-.12.58-.46,0-.58-1.18-.36-1.18-1.18,0-.43.34-.75.91-.75a3.26,3.26,0,0,1,.48,0l0,.31a1.55,1.55,0,0,0-.48-.07c-.36,0-.53.17-.53.41,0,.55,1.18.36,1.18,1.18C4.76,36.33,4.38,36.67,3.77,36.67Z"/>
	<path class="cls-2" d="M6.42,36.67a1.76,1.76,0,0,1-.53-.07l0-.34a1.88,1.88,0,0,0,.53.1c.31,0,.58-.12.58-.46,0-.58-1.18-.36-1.18-1.18,0-.43.34-.75.91-.75a3.26,3.26,0,0,1,.48,0l0,.31a1.55,1.55,0,0,0-.48-.07c-.36,0-.53.17-.53.41,0,.55,1.18.36,1.18,1.18C7.38,36.33,7,36.67,6.42,36.67Z"/>
	<path class="cls-2" d="M10.48,35.34c0,.67-.41,1-.82,1s-.82-.43-.82-1,.38-1,.82-1S10.48,34.67,10.48,35.34Zm.36,0c0-.87-.46-1.3-1.15-1.3a1.24,1.24,0,0,0-1.23,1.37c0,.79.38,1.3,1.15,1.3A1.24,1.24,0,0,0,10.84,35.3Z"/>
	<path class="cls-2" d="M13.08,36.67c-.84,0-1.18-.53-1.18-1.27A1.22,1.22,0,0,1,13.18,34a2.57,2.57,0,0,1,.6.07l0,.31a1.66,1.66,0,0,0-.6-.1c-.6,0-.84.46-.84,1s.29,1,.89,1a1.45,1.45,0,0,0,.58-.12l0,.31A2.26,2.26,0,0,1,13.08,36.67Z"/>
	<path class="cls-2" d="M15.05,36.62V34h.36v2.6Z"/>
	<path class="cls-2" d="M18.06,35.73h-.91l.34-.91a2.36,2.36,0,0,0,.12-.38h0a1.8,1.8,0,0,0,.12.38Zm.7.89-1-2.6h-.38l-.94,2.6h.36L17,36h1.11l.22.6Z"/>
	<path class="cls-2" d="M20.39,34.31v2.31H20V34.31h-.75V34h1.85v.29Z"/>
	<path class="cls-2" d="M22.19,36.62V34h.36v2.6Z"/>
	<path class="cls-2" d="M25.75,35.34c0,.67-.41,1-.82,1s-.82-.43-.82-1,.38-1,.82-1S25.75,34.67,25.75,35.34Zm.38,0c0-.87-.46-1.3-1.15-1.3a1.24,1.24,0,0,0-1.23,1.37c0,.79.38,1.3,1.15,1.3A1.24,1.24,0,0,0,26.14,35.3Z"/>
	<path class="cls-2" d="M28.92,36.62l-1-1.61a3.94,3.94,0,0,1-.29-.53c0,.29,0,.91,0,1.32v.84h-.34V34h.46l1,1.56c.12.19.22.38.31.58,0-.31,0-1,0-1.39V34h.34v2.6Z"/>
	<path class="cls-2" d="M32.63,34.31v.84h.91v.29h-.91v1.18h-.34V34h1.32v.29Z"/>
	<path class="cls-2" d="M35.95,34.74c0,.29-.22.46-.6.46h-.22v-.89h.24C35.75,34.31,35.95,34.43,35.95,34.74Zm.55,1.88-.75-.94a3,3,0,0,1-.22-.29.74.74,0,0,0,.79-.72c0-.5-.36-.67-.89-.67a4.85,4.85,0,0,0-.65,0v2.6h.36V35.46h0l.89,1.18h.43Z"/>
	<path class="cls-2" d="M38.9,35.73H38l.34-.91a2.36,2.36,0,0,0,.12-.38h0a1.8,1.8,0,0,0,.12.38Zm.7.89-1-2.6h-.38l-.94,2.6h.36l.22-.6H39l.22.6Z"/>
	<path class="cls-2" d="M42.27,36.62l-1-1.61a3.94,3.94,0,0,1-.29-.53c0,.29,0,.91,0,1.32v.84h-.34V34h.46l1,1.56c.12.19.22.38.31.58,0-.31,0-1,0-1.39V34h.34v2.6Z"/>
	<path class="cls-2" d="M44.89,37.56l-.17-.14c.24-.19.29-.38.17-.6h.34C45.35,37.08,45.32,37.32,44.89,37.56Zm.24-.89c-.84,0-1.18-.53-1.18-1.27A1.22,1.22,0,0,1,45.23,34a2.57,2.57,0,0,1,.6.07l0,.31a1.66,1.66,0,0,0-.6-.1c-.6,0-.84.46-.84,1s.29,1,.89,1a1.45,1.45,0,0,0,.58-.12l0,.31A2.26,2.26,0,0,1,45.13,36.67Z"/>
	<path class="cls-2" d="M48.3,35.73h-.91l.34-.91a2.36,2.36,0,0,0,.12-.38h0a1.8,1.8,0,0,0,.12.38Zm.7.89L48,34h-.38l-.94,2.6h.36l.22-.6H48.4l.22.6Z"/>
	<path class="cls-2" d="M50.08,36.62V34h.36v2.6Z"/>
	<path class="cls-2" d="M52.22,36.67a1.76,1.76,0,0,1-.53-.07l0-.34a1.88,1.88,0,0,0,.53.1c.31,0,.58-.12.58-.46,0-.58-1.18-.36-1.18-1.18,0-.43.34-.75.91-.75A3.26,3.26,0,0,1,53,34l0,.31a1.55,1.55,0,0,0-.48-.07c-.36,0-.53.17-.53.41,0,.55,1.18.36,1.18,1.18C53.18,36.33,52.82,36.67,52.22,36.67Z"/>
	<path class="cls-2" d="M54.43,36.62V34h1.35v.29h-1v.82h.94v.29H54.8v.91h1v.29Z"/>
	<path class="cls-2" d="M2,39.58a.93.93,0,0,1-1,1,1.59,1.59,0,0,1-.34,0v-2H1C1.71,38.54,2,38.9,2,39.58Zm.38,0a1.16,1.16,0,0,0-1.32-1.27,7.25,7.25,0,0,0-.77,0v2.6l.65,0A1.32,1.32,0,0,0,2.4,39.55Z"/>
	<path class="cls-2" d="M3.29,40.87v-2.6H4.64v.29h-1v.82h.94v.29H3.65v.91h1v.29Z"/>
	<path class="cls-2" d="M8,39c0,.34-.24.53-.63.53a.67.67,0,0,1-.22,0v-1h.24C7.84,38.54,8,38.73,8,39Zm.36,0c0-.46-.34-.77-.94-.77a5.44,5.44,0,0,0-.65,0v2.6h.36v-1h.22A.9.9,0,0,0,8.39,39Z"/>
	<path class="cls-2" d="M9.76,38.06l-.14-.19.55-.43.17.24Zm-.53,2.81v-2.6h1.35v.29h-1v.82h.94v.29H9.59v.91h1v.29Z"/>
	<path class="cls-2" d="M13.27,39.58a.93.93,0,0,1-1,1,1.59,1.59,0,0,1-.34,0v-2h.38C13,38.54,13.27,38.9,13.27,39.58Zm.38,0a1.16,1.16,0,0,0-1.32-1.27,7.25,7.25,0,0,0-.77,0v2.6l.65,0A1.32,1.32,0,0,0,13.66,39.55Z"/>
	<path class="cls-2" d="M14.55,40.87v-2.6h.36v2.6Z"/>
	<path class="cls-2" d="M17.24,40h-.91l.34-.91a2.36,2.36,0,0,0,.12-.38h0a1.8,1.8,0,0,0,.12.38Zm.7.89-1-2.6h-.38l-.94,2.6H16l.22-.6h1.11l.22.6Z"/>
	<path class="cls-2" d="M19.26,38.57v2.31H18.9V38.57h-.75v-.29H20v.29Z"/>
	<path class="cls-2" d="M21.9,39c0,.29-.22.46-.6.46h-.22v-.89h.24C21.71,38.54,21.9,38.66,21.9,39Zm.53,1.9-.75-.94-.22-.29a.74.74,0,0,0,.79-.72c0-.5-.36-.67-.89-.67a4.85,4.85,0,0,0-.65,0v2.6h.36V39.7h0L22,40.87Z"/>
	<path class="cls-2" d="M23.3,40.87v-2.6h.36v2.6Z"/>
	<path class="cls-2" d="M24.77,40.87v-2.6h1.35v.29h-1v.82h.94v.29h-.94v.91h1v.29Z"/>
	<path class="cls-2" d="M29.6,40h-.91l.34-.91a2.36,2.36,0,0,0,.12-.38h0a1.8,1.8,0,0,0,.12.38Zm.72.89-1-2.6H29L28,40.87h.36l.22-.6h1.11l.22.6Z"/>
	<path class="cls-2" d="M33.59,40.87l-.22-1.51a4,4,0,0,1-.07-.65h0c0,.12-.07.29-.12.48l-.55,1.68h-.38l-.53-1.56a3.06,3.06,0,0,1-.17-.58h0c0,.22,0,.41-.07.67l-.17,1.47h-.36l.38-2.6h.43l.55,1.63a2.77,2.77,0,0,1,.14.5h0a4,4,0,0,1,.14-.5l.58-1.66h.43l.38,2.6h-.41Z"/>
	<path class="cls-2" d="M36.09,39c0,.29-.22.46-.65.46H35.2v-.84h.36C36,38.54,36.09,38.71,36.09,39Zm.43,1.15a.61.61,0,0,0-.53-.6h0a.63.63,0,0,0,.46-.6c0-.38-.26-.63-.84-.63h-.77v2.6h.67C36.33,40.87,36.52,40.42,36.52,40.1Zm-.36,0c0,.29-.19.48-.6.48a1.28,1.28,0,0,1-.34,0v-.91h.24C35.85,39.67,36.16,39.77,36.16,40.1Z"/>
	<path class="cls-2" d="M38.42,40.92c-.82,0-1-.46-1-.91V38.28h.36V40c0,.36.12.65.65.65s.67-.19.67-.72V38.28h.34v1.61A.93.93,0,0,1,38.42,40.92Z"/>
	<path class="cls-2" d="M40.56,40.87v-2.6h.36v2.31h.94v.31h-1.3Z"/>
	<path class="cls-2" d="M43.9,40H43l.34-.91a2.36,2.36,0,0,0,.12-.38h0a1.8,1.8,0,0,0,.12.38Zm.7.89-1-2.6h-.38l-.94,2.6h.36l.22-.6H44l.22.6Z"/>
	<path class="cls-2" d="M45.9,38.57v2.31h-.36V38.57h-.75v-.29h1.85v.29Z"/>
	<path class="cls-2" d="M49.12,39.58c0,.67-.41,1-.82,1s-.82-.43-.82-1,.38-1,.82-1S49.12,38.93,49.12,39.58Zm.38,0c0-.87-.46-1.32-1.15-1.32a1.24,1.24,0,0,0-1.23,1.37c0,.79.38,1.32,1.15,1.32A1.24,1.24,0,0,0,49.51,39.55Z"/>
	<path class="cls-2" d="M50.37,40.87v-2.6h.36v2.6Z"/>
	<path class="cls-2" d="M53,39c0,.29-.22.46-.6.46h-.22v-.89h.24C52.8,38.54,53,38.66,53,39Zm.55,1.9-.75-.94-.22-.29a.74.74,0,0,0,.79-.72c0-.5-.36-.67-.89-.67a4.85,4.85,0,0,0-.65,0v2.6h.36V39.7h0l.89,1.18Z"/>
	<path class="cls-2" d="M54.39,40.87v-2.6h1.35v.29h-1v.82h.94v.29h-.94v.91h1v.29Z"/>
	<circle class="cls-1" cx="27.36" cy="7.17" r="3.7"/>
	<path class="cls-1" d="M55.49,28,49.55,12.6a4.21,4.21,0,0,0-4.38-3.15,3.91,3.91,0,0,0-3.8,2.86l-1.08,3c-1.18-2.36-3.82-3.27-7-3.27H27.72c-2.12,0-3.08.91-3.22,2.74H15.72a2.38,2.38,0,0,0-2.55,2.62V27.77a3.55,3.55,0,0,0,0,.5H13L9.4,19a2.74,2.74,0,0,0-2.84-2,2.52,2.52,0,0,0-2.45,1.85L.46,28.47a2.34,2.34,0,0,0-.14,1c0,.87.6,1.39,1.71,1.39a2.83,2.83,0,0,0,1.83-.75c.53-.53.48-.46.79-.79A2.33,2.33,0,0,1,6.85,28c1.25,0,1.49.67,2.74,2a3.7,3.7,0,0,0,.31.29l.14.12a3,3,0,0,0,.55.29,7.57,7.57,0,0,0,2.89.5c1.76,0,3.25-.46,3.75-1.08A2.63,2.63,0,0,0,17.89,29c.12-.43.17-2.16.22-2.79a1.7,1.7,0,0,1,1.83-1.44c.91,0,3.34.22,3.34-2.07,0-1.15-.89-2-3-2H20.2c-.94,0-1.66-.29-1.66-1s.63-1,1.56-1h4.42v8.51c0,2.21.58,3.65,2.67,3.65,1.9,0,2.67-1.27,2.67-2.93C29.86,27,30,25,32.8,25a11.86,11.86,0,0,0,4.11-.7l-1.08,2.89a3.28,3.28,0,0,0-.24,1.51c0,1.35.94,2.16,2.62,2.16A4.26,4.26,0,0,0,41,29.74c.82-.82.75-.7,1.23-1.23a3.56,3.56,0,0,1,3.41-1.95c1.92,0,2.28,1,4.21,3.05a3.62,3.62,0,0,0,2.91,1.27C54.58,30.85,56.09,29.45,55.49,28ZM6.68,25.87c-.67,0-1.15-.67-1.15-1.49s.53-1.9,1.23-1.9,1.27,1,1.27,2A1.25,1.25,0,0,1,6.68,25.87Zm25.68-5c-1.8,0-2.48-.82-2.48-2.67,0-1.23.91-2,2.57-2a2.64,2.64,0,0,1,2.93,2.52C35.39,19.91,33.9,20.82,32.36,20.82Zm13,2.33a2.05,2.05,0,0,1-1.78-2.28c0-1.47.84-2.91,1.88-2.91s2,1.56,2,3A1.91,1.91,0,0,1,45.39,23.15Z"/>
	<circle class="cls-1" cx="6.71" cy="13.51" r="2.72"/>
	<circle class="cls-1" cx="16.21" cy="10.65" r="3.15"/>
</svg>
